<svg xmlns="http://www.w3.org/2000/svg" viewBox="0 0 512 512">
  <rect width="512" height="512" rx="96" fill="#3498db"/>
  <g transform="translate(256,250)">
    <!-- Car body top -->
    <path d="M-90,-70 L-65,-70 L-45,-110 L55,-110 L75,-70 L100,-70 L100,-30 L-90,-30 Z" fill="white" opacity="0.95"/>
    <!-- Windows -->
    <path d="M-38,-100 L-58,-65 L-5,-65 L-5,-100 Z" fill="#87ceeb" opacity="0.8"/>
    <path d="M5,-100 L5,-65 L58,-65 L45,-100 Z" fill="#87ceeb" opacity="0.8"/>
    <!-- Car body bottom -->
    <rect x="-110" y="-30" width="220" height="55" rx="12" fill="white" opacity="0.95"/>
    <!-- Headlights -->
    <rect x="-105" y="-20" width="18" height="12" rx="3" fill="#f1c40f"/>
    <rect x="87" y="-20" width="18" height="12" rx="3" fill="#f1c40f"/>
    <!-- Wheels -->
    <circle cx="-60" cy="30" r="28" fill="#1a5276"/>
    <circle cx="-60" cy="30" r="14" fill="white"/>
    <circle cx="-60" cy="30" r="5" fill="#1a5276"/>
    <circle cx="60" cy="30" r="28" fill="#1a5276"/>
    <circle cx="60" cy="30" r="14" fill="white"/>
    <circle cx="60" cy="30" r="5" fill="#1a5276"/>
  </g>
  <!-- App text -->
  <text x="256" y="400" text-anchor="middle" font-family="Arial, sans-serif" font-size="48" font-weight="bold" fill="white" opacity="0.9">MyCar</text>
</svg>
