<svg xmlns="http://www.w3.org/2000/svg" viewBox="0 0 512 512">
  <rect width="512" height="512" rx="120" fill="#3498db"/>
  <g transform="translate(256,256)">
    <!-- Car body top (rounded) -->
    <path d="M-100,-30 Q-100,-40 -90,-40 L-80,-40 C-62,-40 -53,-77 -49,-86 Q-45,-95 -35,-95 L55,-95 Q65,-95 68,-86 C77,-59 84,-40 95,-40 L100,-40 Q110,-40 110,-30 L110,10 L-100,10 Z" fill="white"/>
    <!-- Front windshield -->
    <path d="M-38,-82 L-60,-35 L-5,-35 L-5,-82 Z" fill="#1a6fb0"/>
    <!-- Rear windshield -->
    <path d="M8,-82 L8,-35 L62,-35 L48,-82 Z" fill="#1a6fb0"/>
    <!-- Car body bottom -->
    <rect x="-125" y="10" width="250" height="65" rx="18" fill="white"/>
    <!-- Front bumper accent -->
    <rect x="-120" y="22" width="22" height="14" rx="6" fill="#f1c40f"/>
    <!-- Rear bumper accent -->
    <rect x="98" y="22" width="22" height="14" rx="6" fill="#e74c3c"/>
    <!-- Front wheel -->
    <circle cx="-68" cy="80" r="35" fill="#1a3a5c"/>
    <circle cx="-68" cy="80" r="20" fill="#bdc3c7"/>
    <circle cx="-68" cy="80" r="8" fill="#1a3a5c"/>
    <!-- Rear wheel -->
    <circle cx="68" cy="80" r="35" fill="#1a3a5c"/>
    <circle cx="68" cy="80" r="20" fill="#bdc3c7"/>
    <circle cx="68" cy="80" r="8" fill="#1a3a5c"/>
  </g>
</svg>
