<svg xmlns="http://www.w3.org/2000/svg" viewBox="0 0 512 512">
  <rect width="512" height="512" rx="112" fill="#3498db"/>
  <g transform="translate(256,256)">
    <!-- Car body top (roof + windshield frame) -->
    <path d="M-100,-40 L-70,-40 L-45,-95 L65,-95 L85,-40 L110,-40 L110,10 L-100,10 Z" fill="white"/>
    <!-- Front windshield -->
    <path d="M-38,-82 L-60,-35 L-5,-35 L-5,-82 Z" fill="#1a6fb0"/>
    <!-- Rear windshield -->
    <path d="M8,-82 L8,-35 L62,-35 L48,-82 Z" fill="#1a6fb0"/>
    <!-- Car body bottom -->
    <rect x="-125" y="10" width="250" height="65" rx="14" fill="white"/>
    <!-- Front bumper accent -->
    <rect x="-120" y="22" width="22" height="14" rx="4" fill="#f1c40f"/>
    <!-- Rear bumper accent -->
    <rect x="98" y="22" width="22" height="14" rx="4" fill="#e74c3c"/>
    <!-- Front wheel -->
    <circle cx="-68" cy="80" r="35" fill="#1a3a5c"/>
    <circle cx="-68" cy="80" r="20" fill="#bdc3c7"/>
    <circle cx="-68" cy="80" r="8" fill="#1a3a5c"/>
    <!-- Rear wheel -->
    <circle cx="68" cy="80" r="35" fill="#1a3a5c"/>
    <circle cx="68" cy="80" r="20" fill="#bdc3c7"/>
    <circle cx="68" cy="80" r="8" fill="#1a3a5c"/>
  </g>
</svg>
